{"title":"Eminem - Berzerk (Lyric Video) 1080p","uid":8894307,"size":80751238,"categoryP":"video","categoryS":"music_videos","magnet":"?xt=urn:btih:d18e51cc5dcfa1fd495a6378a2fa7cd6e3726bcb&amp;dn=Eminem+-+Berzerk+%28Lyric+Video%29+1080p&amp;tr=udp%3A%2F%2Ftracker.openbittorrent.com%3A80&amp;tr=udp%3A%2F%2Fopen.demonii.com%3A1337&amp;tr=udp%3A%2F%2Ftracker.coppersurfer.tk%3A6969&amp;tr=udp%3A%2F%2Fexodus.desync.com%3A6969","seeders":1,"leechers":0,"uploader":"deejayabc","files":1,"time":1378663290,"description":"Keep Seeding!!=))\n\nimage\n\nVideo \nID : 1 \nFormat : AVC \nFormat/Info : Advanced Video Codec \nFormat profile : &lt;a class=&quot;__cf_email__&quot; href=&quot;/cdn-cgi/l/email-protection&quot; data-cfemail=&quot;bdf5d4dad5fdf189938d&quot;&gt;[email&amp;#160;protected]&lt;/a&gt;&lt;script cf-hash='f9e31' type=&quot;text/javascript&quot;&gt;\n/* &lt;![CDATA[ */!function(){try{var t=&quot;currentScript&quot;in document?document.currentScript:function(){for(var t=document.getElementsByTagName(&quot;script&quot;),e=t.length;e--;)if(t[e].getAttribute(&quot;cf-hash&quot;))return t[e]}();if(t&amp;&amp;t.previousSibling){var e,r,n,i,c=t.previousSibling,a=c.getAttribute(&quot;data-cfemail&quot;);if(a){for(e=&quot;&quot;,r=parseInt(a.substr(0,2),16),n=2;a.length-n;n+=2)i=parseInt(a.substr(n,2),16)^r,e+=String.fromCharCode(i);e=document.createTextNode(e),c.parentNode.replaceChild(e,c)}}}catch(u){}}();/* ]]&gt; */&lt;/script&gt; \nFormat settings, CABAC : Yes \nFormat settings, ReFrames : 1 frame \nCodec ID : avc1 \nCodec ID/Info : Advanced Video Coding \nDuration : 4mn 8s \nBit rate : 2 404 Kbps \nMaximum bit rate : 5 699 Kbps \nWidth : 1 920 pixels \nHeight : 1 080 pixels \nDisplay aspect ratio : 16:9 \nFrame rate mode : Constant \nFrame rate : 23.976 fps \nColor space : YUV \nChroma subsampling : 4:2:0 \nBit depth : 8 bits \nScan type : Progressive \nBits/(Pixel*Frame) : 0.048 \nStream size : 71.2 MiB (93%) \nTagged date : UTC 2013-09-05 23:26:16 \n\nAudio \nID : 2 \nFormat : AAC \nFormat/Info : Advanced Audio Codec \nFormat profile : LC \nCodec ID : 40 \nDuration : 4mn 8s \nBit rate mode : Variable \nBit rate : 192 Kbps \nMaximum bit rate : 201 Kbps \nChannel(s) : 2 channels \nChannel positions : Front: L R \nSampling rate : 44.1 KHz \nCompression mode : Lossy \nStream size : 5.69 MiB (7%) \nTitle : IsoMedia File Produced by Google, 5-11-2011 \nEncoded date : UTC 2013-09-05 23:26:14 \nTagged date : UTC 2013-09-05 23:26:16 ","torrent":{"xt":"urn:btih:d18e51cc5dcfa1fd495a6378a2fa7cd6e3726bcb","amp;dn":"Eminem+-+Berzerk+%28Lyric+Video%29+1080p","amp;tr":["udp%3A%2F%2Ftracker.openbittorrent.com%3A80","udp%3A%2F%2Fopen.demonii.com%3A1337","udp%3A%2F%2Ftracker.coppersurfer.tk%3A6969","udp%3A%2F%2Fexodus.desync.com%3A6969"],"infoHash":"d18e51cc5dcfa1fd495a6378a2fa7cd6e3726bcb","infoHashBuffer":{"type":"Buffer","data":[209,142,81,204,93,207,161,253,73,90,99,120,162,250,124,214,227,114,107,203]},"announce":[],"urlList":[]}}